<?xml version="1.0" encoding="utf-8"?>
<!-- Generator: Adobe Illustrator 25.2.0, SVG Export Plug-In . SVG Version: 6.00 Build 0)  -->
<svg version="1.1" id="Layer_1" xmlns="http://www.w3.org/2000/svg" xmlns:xlink="http://www.w3.org/1999/xlink" x="0px" y="0px"
	 viewBox="0 0 252.67 326" style="enable-background:new 0 0 252.67 326;" xml:space="preserve">
<style type="text/css">
	.st0{fill:#F26628;}
	.st1{fill:#F47C29;}
	.st2{fill:#BD7956;}
	.st3{fill:#AE5642;}
	.st4{fill:#A43942;}
</style>
<polygon class="st0" points="140.67,170.33 156,147.33 156,109 184.33,86 241.68,75 214.67,96 191.17,154.33 169.67,173 140.67,173 
	"/>
<polygon class="st1" points="116,173 129,159.33 129,134.67 123.7,129 123.7,95.67 143.67,69 145.33,46 103,23 74.33,23 94.67,46 
	96.67,81.67 85.67,96 85.67,128.67 101.67,170.67 "/>
<polygon class="st0" points="86.33,170.33 78,150.67 52.33,127.33 52.33,92 60.33,89 45,57.33 10,77 23.67,140.67 71.33,173 "/>
<polygon class="st2" points="22.33,183 224.67,181.67 197.67,207 33.33,207 "/>
<path class="st3" d="M48.17,215.67l29.17,27H187c0,0,12-22.33,11-22.33S48.17,215.67,48.17,215.67z"/>
<polygon class="st4" points="79.33,255.67 100,301.33 100,252 "/>
<polygon class="st3" points="112,252 112,317.94 129.67,317.94 127.33,252 "/>
<polygon class="st4" points="140.67,252 140.67,308.33 160.33,284.97 160.33,258.67 "/>
</svg>
